<svg id="visual" viewBox="0 0 900 600" width="900" height="600" xmlns="http://www.w3.org/2000/svg" xmlns:xlink="http://www.w3.org/1999/xlink" version="1.1"><rect width="900" height="600" fill="#001829"></rect><g><g transform="translate(252 545)"><path d="M0 -114.9L99.5 -57.5L99.5 57.5L0 114.9L-99.5 57.5L-99.5 -57.5Z" fill="none" stroke="#297EA6" stroke-width="2"></path></g><g transform="translate(802 325)"><path d="M0 -75L65 -37.5L65 37.5L0 75L-65 37.5L-65 -37.5Z" fill="none" stroke="#297EA6" stroke-width="2"></path></g><g transform="translate(334 46)"><path d="M0 -60L52 -30L52 30L0 60L-52 30L-52 -30Z" fill="none" stroke="#297EA6" stroke-width="2"></path></g><g transform="translate(47 396)"><path d="M0 -90L77.9 -45L77.9 45L0 90L-77.9 45L-77.9 -45Z" stroke="#297EA6" fill="none" stroke-width="2"></path></g><g transform="translate(490 429)"><path d="M0 -82L71 -41L71 41L0 82L-71 41L-71 -41Z" stroke="#297EA6" fill="none" stroke-width="2"></path></g><g transform="translate(240 267)"><path d="M0 -75L65 -37.5L65 37.5L0 75L-65 37.5L-65 -37.5Z" stroke="#297EA6" fill="none" stroke-width="2"></path></g><g transform="translate(755 21)"><path d="M0 -108L93.5 -54L93.5 54L0 108L-93.5 54L-93.5 -54Z" stroke="#297EA6" fill="none" stroke-width="2"></path></g><g transform="translate(68 64)"><path d="M0 -99L85.7 -49.5L85.7 49.5L0 99L-85.7 49.5L-85.7 -49.5Z" stroke="#297EA6" fill="none" stroke-width="2"></path></g><g transform="translate(888 586)"><path d="M0 -104L90.1 -52L90.1 52L0 104L-90.1 52L-90.1 -52Z" stroke="#297EA6" fill="none" stroke-width="2"></path></g></g></svg>